<mxfile host="app.diagrams.net" agent="Mozilla/5.0 (Macintosh; Intel Mac OS X 10_15_7) AppleWebKit/537.36 (KHTML, like Gecko) Chrome/134.0.0.0 Safari/537.36" version="26.1.1">
  <diagram name="第 1 页" id="vRagFAijQyZhj9dlDpXE">
    <mxGraphModel dx="729" dy="1114" grid="0" gridSize="10" guides="1" tooltips="1" connect="1" arrows="1" fold="1" page="0" pageScale="1" pageWidth="827" pageHeight="1169" math="0" shadow="0">
      <root>
        <mxCell id="0" />
        <mxCell id="1" parent="0" />
        <mxCell id="eTuDxrzCidafxKBiJFuT-1" value="" style="strokeWidth=2;html=1;shape=mxgraph.flowchart.start_2;whiteSpace=wrap;aspect=fixed;" vertex="1" parent="1">
          <mxGeometry x="1191.5" y="634" width="50" height="50" as="geometry" />
        </mxCell>
        <mxCell id="eTuDxrzCidafxKBiJFuT-2" style="edgeStyle=orthogonalEdgeStyle;rounded=0;orthogonalLoop=1;jettySize=auto;html=1;exitX=0.5;exitY=1;exitDx=0;exitDy=0;exitPerimeter=0;entryX=0.5;entryY=0;entryDx=0;entryDy=0;" edge="1" parent="1" source="eTuDxrzCidafxKBiJFuT-3" target="eTuDxrzCidafxKBiJFuT-5">
          <mxGeometry relative="1" as="geometry" />
        </mxCell>
        <mxCell id="eTuDxrzCidafxKBiJFuT-3" value="" style="strokeWidth=2;html=1;shape=mxgraph.flowchart.start_2;whiteSpace=wrap;aspect=fixed;" vertex="1" parent="1">
          <mxGeometry x="784" y="-6" width="50" height="50" as="geometry" />
        </mxCell>
        <mxCell id="eTuDxrzCidafxKBiJFuT-4" style="edgeStyle=orthogonalEdgeStyle;rounded=0;orthogonalLoop=1;jettySize=auto;html=1;exitX=0.5;exitY=1;exitDx=0;exitDy=0;entryX=0.5;entryY=0;entryDx=0;entryDy=0;" edge="1" parent="1" source="eTuDxrzCidafxKBiJFuT-5" target="eTuDxrzCidafxKBiJFuT-7">
          <mxGeometry relative="1" as="geometry" />
        </mxCell>
        <mxCell id="eTuDxrzCidafxKBiJFuT-5" value="选择对应项目" style="rounded=1;whiteSpace=wrap;html=1;fontSize=12;glass=0;strokeWidth=1;shadow=0;" vertex="1" parent="1">
          <mxGeometry x="749" y="86" width="120" height="40" as="geometry" />
        </mxCell>
        <mxCell id="eTuDxrzCidafxKBiJFuT-6" style="edgeStyle=orthogonalEdgeStyle;rounded=0;orthogonalLoop=1;jettySize=auto;html=1;exitX=0.5;exitY=1;exitDx=0;exitDy=0;entryX=0.5;entryY=0;entryDx=0;entryDy=0;" edge="1" parent="1" source="eTuDxrzCidafxKBiJFuT-7" target="eTuDxrzCidafxKBiJFuT-9">
          <mxGeometry relative="1" as="geometry" />
        </mxCell>
        <mxCell id="eTuDxrzCidafxKBiJFuT-7" value="点击路线图" style="rounded=1;whiteSpace=wrap;html=1;fontSize=12;glass=0;strokeWidth=1;shadow=0;" vertex="1" parent="1">
          <mxGeometry x="749" y="163" width="120" height="40" as="geometry" />
        </mxCell>
        <mxCell id="eTuDxrzCidafxKBiJFuT-8" style="edgeStyle=orthogonalEdgeStyle;rounded=0;orthogonalLoop=1;jettySize=auto;html=1;exitX=0.5;exitY=1;exitDx=0;exitDy=0;entryX=0.5;entryY=0;entryDx=0;entryDy=0;" edge="1" parent="1" source="eTuDxrzCidafxKBiJFuT-9">
          <mxGeometry relative="1" as="geometry">
            <mxPoint x="811" y="303.5" as="targetPoint" />
          </mxGeometry>
        </mxCell>
        <mxCell id="eTuDxrzCidafxKBiJFuT-9" value="创建路线图" style="rounded=1;whiteSpace=wrap;html=1;fontSize=12;glass=0;strokeWidth=1;shadow=0;" vertex="1" parent="1">
          <mxGeometry x="749" y="238" width="120" height="40" as="geometry" />
        </mxCell>
        <mxCell id="eTuDxrzCidafxKBiJFuT-10" style="edgeStyle=orthogonalEdgeStyle;rounded=0;orthogonalLoop=1;jettySize=auto;html=1;exitX=0.5;exitY=1;exitDx=0;exitDy=0;entryX=0.5;entryY=0;entryDx=0;entryDy=0;" edge="1" parent="1" source="eTuDxrzCidafxKBiJFuT-11" target="eTuDxrzCidafxKBiJFuT-28">
          <mxGeometry relative="1" as="geometry">
            <mxPoint x="1217" y="76" as="targetPoint" />
            <Array as="points">
              <mxPoint x="809" y="632" />
              <mxPoint x="906" y="632" />
              <mxPoint x="906" y="2" />
              <mxPoint x="1217" y="2" />
              <mxPoint x="1217" y="28" />
            </Array>
          </mxGeometry>
        </mxCell>
        <mxCell id="eTuDxrzCidafxKBiJFuT-11" value="编辑并行工作流" style="rounded=1;whiteSpace=wrap;html=1;fontSize=12;glass=0;strokeWidth=1;shadow=0;" vertex="1" parent="1">
          <mxGeometry x="749" y="572" width="120" height="40" as="geometry" />
        </mxCell>
        <mxCell id="eTuDxrzCidafxKBiJFuT-12" style="edgeStyle=orthogonalEdgeStyle;rounded=0;orthogonalLoop=1;jettySize=auto;html=1;exitX=0.5;exitY=1;exitDx=0;exitDy=0;entryX=0;entryY=0.5;entryDx=0;entryDy=0;" edge="1" parent="1" source="eTuDxrzCidafxKBiJFuT-13" target="eTuDxrzCidafxKBiJFuT-11">
          <mxGeometry relative="1" as="geometry" />
        </mxCell>
        <mxCell id="eTuDxrzCidafxKBiJFuT-13" value="create_new_workflow&lt;div&gt;创建新并行工作流&lt;/div&gt;" style="rounded=1;whiteSpace=wrap;html=1;fontSize=12;glass=0;strokeWidth=1;shadow=0;" vertex="1" parent="1">
          <mxGeometry x="597" y="386" width="120" height="40" as="geometry" />
        </mxCell>
        <mxCell id="eTuDxrzCidafxKBiJFuT-14" style="edgeStyle=orthogonalEdgeStyle;rounded=0;orthogonalLoop=1;jettySize=auto;html=1;exitX=0.5;exitY=1;exitDx=0;exitDy=0;entryX=0.5;entryY=0;entryDx=0;entryDy=0;" edge="1" parent="1" source="eTuDxrzCidafxKBiJFuT-15" target="eTuDxrzCidafxKBiJFuT-11">
          <mxGeometry relative="1" as="geometry" />
        </mxCell>
        <mxCell id="eTuDxrzCidafxKBiJFuT-15" value="修改现存并行工作流" style="rounded=1;whiteSpace=wrap;html=1;fontSize=12;glass=0;strokeWidth=1;shadow=0;" vertex="1" parent="1">
          <mxGeometry x="751" y="501" width="120" height="40" as="geometry" />
        </mxCell>
        <mxCell id="eTuDxrzCidafxKBiJFuT-16" style="edgeStyle=orthogonalEdgeStyle;rounded=0;orthogonalLoop=1;jettySize=auto;html=1;exitX=0.5;exitY=1;exitDx=0;exitDy=0;entryX=0.5;entryY=0;entryDx=0;entryDy=0;" edge="1" parent="1" target="eTuDxrzCidafxKBiJFuT-22">
          <mxGeometry relative="1" as="geometry">
            <mxPoint x="811" y="343.5" as="sourcePoint" />
          </mxGeometry>
        </mxCell>
        <mxCell id="eTuDxrzCidafxKBiJFuT-18" style="edgeStyle=orthogonalEdgeStyle;rounded=0;orthogonalLoop=1;jettySize=auto;html=1;exitX=0.5;exitY=1;exitDx=0;exitDy=0;entryX=0.5;entryY=0;entryDx=0;entryDy=0;" edge="1" parent="1" source="eTuDxrzCidafxKBiJFuT-22" target="eTuDxrzCidafxKBiJFuT-15">
          <mxGeometry relative="1" as="geometry" />
        </mxCell>
        <mxCell id="eTuDxrzCidafxKBiJFuT-19" value="Yes" style="edgeLabel;html=1;align=center;verticalAlign=middle;resizable=0;points=[];" vertex="1" connectable="0" parent="eTuDxrzCidafxKBiJFuT-18">
          <mxGeometry x="-0.1273" y="-1" relative="1" as="geometry">
            <mxPoint as="offset" />
          </mxGeometry>
        </mxCell>
        <mxCell id="eTuDxrzCidafxKBiJFuT-20" style="edgeStyle=orthogonalEdgeStyle;rounded=0;orthogonalLoop=1;jettySize=auto;html=1;exitX=0;exitY=0.5;exitDx=0;exitDy=0;entryX=1;entryY=0.5;entryDx=0;entryDy=0;" edge="1" parent="1" source="eTuDxrzCidafxKBiJFuT-22" target="eTuDxrzCidafxKBiJFuT-13">
          <mxGeometry relative="1" as="geometry" />
        </mxCell>
        <mxCell id="eTuDxrzCidafxKBiJFuT-21" value="No" style="edgeLabel;html=1;align=center;verticalAlign=middle;resizable=0;points=[];" vertex="1" connectable="0" parent="eTuDxrzCidafxKBiJFuT-20">
          <mxGeometry x="-0.1604" y="-2" relative="1" as="geometry">
            <mxPoint as="offset" />
          </mxGeometry>
        </mxCell>
        <mxCell id="eTuDxrzCidafxKBiJFuT-22" value="传入workflow_id" style="rhombus;whiteSpace=wrap;html=1;shadow=0;fontFamily=Helvetica;fontSize=12;align=center;strokeWidth=1;spacing=6;spacingTop=-4;" vertex="1" parent="1">
          <mxGeometry x="761" y="366" width="100" height="80" as="geometry" />
        </mxCell>
        <mxCell id="eTuDxrzCidafxKBiJFuT-23" value="" style="endArrow=none;html=1;rounded=0;strokeWidth=4;" edge="1" parent="1">
          <mxGeometry width="50" height="50" relative="1" as="geometry">
            <mxPoint x="948" y="156" as="sourcePoint" />
            <mxPoint x="1497" y="156" as="targetPoint" />
          </mxGeometry>
        </mxCell>
        <mxCell id="eTuDxrzCidafxKBiJFuT-24" value="" style="endArrow=classic;html=1;rounded=0;entryX=0.5;entryY=0;entryDx=0;entryDy=0;exitX=0.5;exitY=1;exitDx=0;exitDy=0;entryPerimeter=0;" edge="1" parent="1" source="eTuDxrzCidafxKBiJFuT-44" target="eTuDxrzCidafxKBiJFuT-1">
          <mxGeometry width="50" height="50" relative="1" as="geometry">
            <mxPoint x="1218.7" y="604" as="sourcePoint" />
            <mxPoint x="1218.7" y="634" as="targetPoint" />
          </mxGeometry>
        </mxCell>
        <mxCell id="eTuDxrzCidafxKBiJFuT-25" style="edgeStyle=orthogonalEdgeStyle;rounded=0;orthogonalLoop=1;jettySize=auto;html=1;exitX=0.5;exitY=1;exitDx=0;exitDy=0;" edge="1" parent="1" source="eTuDxrzCidafxKBiJFuT-26">
          <mxGeometry relative="1" as="geometry">
            <mxPoint x="1219" y="157" as="targetPoint" />
          </mxGeometry>
        </mxCell>
        <mxCell id="eTuDxrzCidafxKBiJFuT-26" value="初始化状态以及节点" style="rounded=1;whiteSpace=wrap;html=1;fontSize=12;glass=0;strokeWidth=1;shadow=0;" vertex="1" parent="1">
          <mxGeometry x="1139.5" y="99" width="159" height="40" as="geometry" />
        </mxCell>
        <mxCell id="eTuDxrzCidafxKBiJFuT-27" style="edgeStyle=orthogonalEdgeStyle;rounded=0;orthogonalLoop=1;jettySize=auto;html=1;exitX=0.5;exitY=1;exitDx=0;exitDy=0;entryX=0.5;entryY=0;entryDx=0;entryDy=0;" edge="1" parent="1" source="eTuDxrzCidafxKBiJFuT-28" target="eTuDxrzCidafxKBiJFuT-26">
          <mxGeometry relative="1" as="geometry" />
        </mxCell>
        <mxCell id="eTuDxrzCidafxKBiJFuT-28" value="调用workflow_status_service获取状态池现存状态" style="rounded=1;whiteSpace=wrap;html=1;fontSize=12;glass=0;strokeWidth=1;shadow=0;" vertex="1" parent="1">
          <mxGeometry x="1137" y="34" width="159" height="40" as="geometry" />
        </mxCell>
        <mxCell id="eTuDxrzCidafxKBiJFuT-29" value="新建后置节点" style="rounded=1;whiteSpace=wrap;html=1;fontSize=12;glass=0;strokeWidth=1;shadow=0;" vertex="1" parent="1">
          <mxGeometry x="1397" y="190" width="159" height="40" as="geometry" />
        </mxCell>
        <mxCell id="eTuDxrzCidafxKBiJFuT-30" value="编辑现存节点" style="rounded=1;whiteSpace=wrap;html=1;fontSize=12;glass=0;strokeWidth=1;shadow=0;" vertex="1" parent="1">
          <mxGeometry x="1194" y="190" width="159" height="40" as="geometry" />
        </mxCell>
        <mxCell id="eTuDxrzCidafxKBiJFuT-31" value="配置节点流转条件" style="rounded=1;whiteSpace=wrap;html=1;fontSize=12;glass=0;strokeWidth=1;shadow=0;" vertex="1" parent="1">
          <mxGeometry x="1190" y="303.5" width="94" height="40" as="geometry" />
        </mxCell>
        <mxCell id="eTuDxrzCidafxKBiJFuT-32" value="配置节点流转权限" style="rounded=1;whiteSpace=wrap;html=1;fontSize=12;glass=0;strokeWidth=1;shadow=0;" vertex="1" parent="1">
          <mxGeometry x="1314" y="303.5" width="101" height="40" as="geometry" />
        </mxCell>
        <mxCell id="eTuDxrzCidafxKBiJFuT-33" value="配置节点流转填写字段" style="rounded=1;whiteSpace=wrap;html=1;fontSize=12;glass=0;strokeWidth=1;shadow=0;" vertex="1" parent="1">
          <mxGeometry x="1445" y="302" width="101" height="40" as="geometry" />
        </mxCell>
        <mxCell id="eTuDxrzCidafxKBiJFuT-34" value="" style="endArrow=none;html=1;rounded=0;strokeWidth=4;" edge="1" parent="1">
          <mxGeometry width="50" height="50" relative="1" as="geometry">
            <mxPoint x="1210" y="258" as="sourcePoint" />
            <mxPoint x="1528" y="260" as="targetPoint" />
          </mxGeometry>
        </mxCell>
        <mxCell id="eTuDxrzCidafxKBiJFuT-35" value="" style="endArrow=classic;html=1;rounded=0;exitX=0.5;exitY=1;exitDx=0;exitDy=0;" edge="1" parent="1" source="eTuDxrzCidafxKBiJFuT-30">
          <mxGeometry width="50" height="50" relative="1" as="geometry">
            <mxPoint x="1277" y="221" as="sourcePoint" />
            <mxPoint x="1274" y="254" as="targetPoint" />
          </mxGeometry>
        </mxCell>
        <mxCell id="eTuDxrzCidafxKBiJFuT-36" value="" style="endArrow=classic;html=1;rounded=0;exitX=0.5;exitY=1;exitDx=0;exitDy=0;" edge="1" parent="1" source="eTuDxrzCidafxKBiJFuT-29">
          <mxGeometry width="50" height="50" relative="1" as="geometry">
            <mxPoint x="1479" y="215" as="sourcePoint" />
            <mxPoint x="1477" y="256" as="targetPoint" />
          </mxGeometry>
        </mxCell>
        <mxCell id="eTuDxrzCidafxKBiJFuT-37" value="" style="endArrow=classic;html=1;rounded=0;entryX=0.5;entryY=0;entryDx=0;entryDy=0;" edge="1" parent="1" target="eTuDxrzCidafxKBiJFuT-31">
          <mxGeometry width="50" height="50" relative="1" as="geometry">
            <mxPoint x="1237" y="265" as="sourcePoint" />
            <mxPoint x="1246" y="306" as="targetPoint" />
          </mxGeometry>
        </mxCell>
        <mxCell id="eTuDxrzCidafxKBiJFuT-38" value="" style="endArrow=classic;html=1;rounded=0;entryX=0.5;entryY=0;entryDx=0;entryDy=0;" edge="1" parent="1" target="eTuDxrzCidafxKBiJFuT-32">
          <mxGeometry width="50" height="50" relative="1" as="geometry">
            <mxPoint x="1365" y="264" as="sourcePoint" />
            <mxPoint x="1247" y="314" as="targetPoint" />
          </mxGeometry>
        </mxCell>
        <mxCell id="eTuDxrzCidafxKBiJFuT-39" value="" style="endArrow=classic;html=1;rounded=0;entryX=0.5;entryY=0;entryDx=0;entryDy=0;" edge="1" parent="1" target="eTuDxrzCidafxKBiJFuT-33">
          <mxGeometry width="50" height="50" relative="1" as="geometry">
            <mxPoint x="1496" y="263" as="sourcePoint" />
            <mxPoint x="1375" y="314" as="targetPoint" />
          </mxGeometry>
        </mxCell>
        <mxCell id="eTuDxrzCidafxKBiJFuT-40" value="" style="endArrow=none;html=1;rounded=0;strokeWidth=4;" edge="1" parent="1">
          <mxGeometry width="50" height="50" relative="1" as="geometry">
            <mxPoint x="1213" y="389" as="sourcePoint" />
            <mxPoint x="1531" y="391" as="targetPoint" />
          </mxGeometry>
        </mxCell>
        <mxCell id="eTuDxrzCidafxKBiJFuT-41" value="" style="endArrow=classic;html=1;rounded=0;exitX=0.5;exitY=1;exitDx=0;exitDy=0;" edge="1" parent="1" source="eTuDxrzCidafxKBiJFuT-31">
          <mxGeometry width="50" height="50" relative="1" as="geometry">
            <mxPoint x="1247" y="275" as="sourcePoint" />
            <mxPoint x="1237" y="383" as="targetPoint" />
          </mxGeometry>
        </mxCell>
        <mxCell id="eTuDxrzCidafxKBiJFuT-42" value="" style="endArrow=classic;html=1;rounded=0;exitX=0.5;exitY=1;exitDx=0;exitDy=0;" edge="1" parent="1" source="eTuDxrzCidafxKBiJFuT-32">
          <mxGeometry width="50" height="50" relative="1" as="geometry">
            <mxPoint x="1247" y="354" as="sourcePoint" />
            <mxPoint x="1365" y="384" as="targetPoint" />
          </mxGeometry>
        </mxCell>
        <mxCell id="eTuDxrzCidafxKBiJFuT-43" value="" style="endArrow=classic;html=1;rounded=0;exitX=0.446;exitY=0.975;exitDx=0;exitDy=0;exitPerimeter=0;" edge="1" parent="1" source="eTuDxrzCidafxKBiJFuT-33">
          <mxGeometry width="50" height="50" relative="1" as="geometry">
            <mxPoint x="1375" y="354" as="sourcePoint" />
            <mxPoint x="1490" y="385" as="targetPoint" />
          </mxGeometry>
        </mxCell>
        <mxCell id="eTuDxrzCidafxKBiJFuT-44" value="保存工作流配置" style="rounded=1;whiteSpace=wrap;html=1;fontSize=12;glass=0;strokeWidth=1;shadow=0;" vertex="1" parent="1">
          <mxGeometry x="1137" y="550" width="159" height="40" as="geometry" />
        </mxCell>
        <mxCell id="eTuDxrzCidafxKBiJFuT-45" style="edgeStyle=orthogonalEdgeStyle;rounded=0;orthogonalLoop=1;jettySize=auto;html=1;exitX=0.5;exitY=1;exitDx=0;exitDy=0;" edge="1" parent="1" source="eTuDxrzCidafxKBiJFuT-46" target="eTuDxrzCidafxKBiJFuT-44">
          <mxGeometry relative="1" as="geometry">
            <Array as="points">
              <mxPoint x="1048" y="512" />
              <mxPoint x="1217" y="512" />
            </Array>
          </mxGeometry>
        </mxCell>
        <mxCell id="eTuDxrzCidafxKBiJFuT-46" value="新建状态" style="rounded=1;whiteSpace=wrap;html=1;fontSize=12;glass=0;strokeWidth=1;shadow=0;" vertex="1" parent="1">
          <mxGeometry x="968" y="192" width="159" height="40" as="geometry" />
        </mxCell>
        <mxCell id="eTuDxrzCidafxKBiJFuT-47" value="" style="endArrow=classic;html=1;rounded=0;entryX=0.5;entryY=0;entryDx=0;entryDy=0;" edge="1" parent="1" target="eTuDxrzCidafxKBiJFuT-46">
          <mxGeometry width="50" height="50" relative="1" as="geometry">
            <mxPoint x="1048" y="163" as="sourcePoint" />
            <mxPoint x="1040" y="190" as="targetPoint" />
          </mxGeometry>
        </mxCell>
        <mxCell id="eTuDxrzCidafxKBiJFuT-48" value="" style="endArrow=classic;html=1;rounded=0;entryX=0.5;entryY=0;entryDx=0;entryDy=0;" edge="1" parent="1">
          <mxGeometry width="50" height="50" relative="1" as="geometry">
            <mxPoint x="1273" y="158" as="sourcePoint" />
            <mxPoint x="1273" y="187" as="targetPoint" />
          </mxGeometry>
        </mxCell>
        <mxCell id="eTuDxrzCidafxKBiJFuT-49" value="" style="endArrow=classic;html=1;rounded=0;entryX=0.5;entryY=0;entryDx=0;entryDy=0;" edge="1" parent="1">
          <mxGeometry width="50" height="50" relative="1" as="geometry">
            <mxPoint x="1476" y="161" as="sourcePoint" />
            <mxPoint x="1476" y="190" as="targetPoint" />
          </mxGeometry>
        </mxCell>
        <mxCell id="eTuDxrzCidafxKBiJFuT-50" style="edgeStyle=orthogonalEdgeStyle;rounded=0;orthogonalLoop=1;jettySize=auto;html=1;exitX=0.5;exitY=1;exitDx=0;exitDy=0;" edge="1" parent="1" source="eTuDxrzCidafxKBiJFuT-51" target="eTuDxrzCidafxKBiJFuT-44">
          <mxGeometry relative="1" as="geometry">
            <Array as="points">
              <mxPoint x="1370" y="513" />
              <mxPoint x="1217" y="513" />
            </Array>
          </mxGeometry>
        </mxCell>
        <mxCell id="eTuDxrzCidafxKBiJFuT-51" value="保存节点配置" style="rounded=1;whiteSpace=wrap;html=1;fontSize=12;glass=0;strokeWidth=1;shadow=0;" vertex="1" parent="1">
          <mxGeometry x="1290" y="435" width="159" height="40" as="geometry" />
        </mxCell>
        <mxCell id="eTuDxrzCidafxKBiJFuT-52" value="" style="endArrow=classic;html=1;rounded=0;entryX=0.5;entryY=0;entryDx=0;entryDy=0;" edge="1" parent="1">
          <mxGeometry width="50" height="50" relative="1" as="geometry">
            <mxPoint x="1364" y="395" as="sourcePoint" />
            <mxPoint x="1364" y="435" as="targetPoint" />
          </mxGeometry>
        </mxCell>
        <mxCell id="eTuDxrzCidafxKBiJFuT-53" value="" style="strokeWidth=2;html=1;shape=mxgraph.flowchart.start_2;whiteSpace=wrap;aspect=fixed;fillColor=#000000;" vertex="1" parent="1">
          <mxGeometry x="1201" y="643.5" width="31" height="31" as="geometry" />
        </mxCell>
        <mxCell id="eTuDxrzCidafxKBiJFuT-54" style="edgeStyle=orthogonalEdgeStyle;rounded=0;orthogonalLoop=1;jettySize=auto;html=1;exitX=0.5;exitY=1;exitDx=0;exitDy=0;exitPerimeter=0;entryX=0.5;entryY=0;entryDx=0;entryDy=0;" edge="1" parent="1" source="eTuDxrzCidafxKBiJFuT-55" target="eTuDxrzCidafxKBiJFuT-57">
          <mxGeometry relative="1" as="geometry" />
        </mxCell>
        <mxCell id="eTuDxrzCidafxKBiJFuT-55" value="" style="strokeWidth=2;html=1;shape=mxgraph.flowchart.start_2;whiteSpace=wrap;aspect=fixed;" vertex="1" parent="1">
          <mxGeometry x="1972" y="-48.75" width="50" height="50" as="geometry" />
        </mxCell>
        <mxCell id="eTuDxrzCidafxKBiJFuT-56" style="edgeStyle=orthogonalEdgeStyle;rounded=0;orthogonalLoop=1;jettySize=auto;html=1;exitX=0.5;exitY=1;exitDx=0;exitDy=0;entryX=0.5;entryY=0;entryDx=0;entryDy=0;" edge="1" parent="1" source="eTuDxrzCidafxKBiJFuT-57" target="eTuDxrzCidafxKBiJFuT-59">
          <mxGeometry relative="1" as="geometry" />
        </mxCell>
        <mxCell id="eTuDxrzCidafxKBiJFuT-57" value="选择对应项目" style="rounded=1;whiteSpace=wrap;html=1;fontSize=12;glass=0;strokeWidth=1;shadow=0;" vertex="1" parent="1">
          <mxGeometry x="1937" y="43.25" width="120" height="40" as="geometry" />
        </mxCell>
        <mxCell id="eTuDxrzCidafxKBiJFuT-58" style="edgeStyle=orthogonalEdgeStyle;rounded=0;orthogonalLoop=1;jettySize=auto;html=1;exitX=0.5;exitY=1;exitDx=0;exitDy=0;entryX=0.5;entryY=0;entryDx=0;entryDy=0;" edge="1" parent="1" source="eTuDxrzCidafxKBiJFuT-59" target="eTuDxrzCidafxKBiJFuT-61">
          <mxGeometry relative="1" as="geometry" />
        </mxCell>
        <mxCell id="eTuDxrzCidafxKBiJFuT-59" value="创建路线图" style="rounded=1;whiteSpace=wrap;html=1;fontSize=12;glass=0;strokeWidth=1;shadow=0;" vertex="1" parent="1">
          <mxGeometry x="1937" y="120.25" width="120" height="40" as="geometry" />
        </mxCell>
        <mxCell id="eTuDxrzCidafxKBiJFuT-60" style="edgeStyle=orthogonalEdgeStyle;rounded=0;orthogonalLoop=1;jettySize=auto;html=1;exitX=0.5;exitY=1;exitDx=0;exitDy=0;entryX=0.5;entryY=0;entryDx=0;entryDy=0;" edge="1" parent="1" source="eTuDxrzCidafxKBiJFuT-61" target="eTuDxrzCidafxKBiJFuT-63">
          <mxGeometry relative="1" as="geometry">
            <mxPoint x="1999" y="260.75" as="targetPoint" />
          </mxGeometry>
        </mxCell>
        <mxCell id="eTuDxrzCidafxKBiJFuT-83" style="edgeStyle=orthogonalEdgeStyle;rounded=0;orthogonalLoop=1;jettySize=auto;html=1;exitX=0.5;exitY=1;exitDx=0;exitDy=0;entryX=0.5;entryY=0;entryDx=0;entryDy=0;" edge="1" parent="1" source="eTuDxrzCidafxKBiJFuT-61" target="eTuDxrzCidafxKBiJFuT-81">
          <mxGeometry relative="1" as="geometry" />
        </mxCell>
        <mxCell id="eTuDxrzCidafxKBiJFuT-61" value="选择配置" style="rounded=1;whiteSpace=wrap;html=1;fontSize=12;glass=0;strokeWidth=1;shadow=0;" vertex="1" parent="1">
          <mxGeometry x="1937" y="195.25" width="120" height="40" as="geometry" />
        </mxCell>
        <mxCell id="eTuDxrzCidafxKBiJFuT-71" style="edgeStyle=orthogonalEdgeStyle;rounded=0;orthogonalLoop=1;jettySize=auto;html=1;exitX=0.5;exitY=1;exitDx=0;exitDy=0;entryX=0.5;entryY=0;entryDx=0;entryDy=0;" edge="1" parent="1" source="eTuDxrzCidafxKBiJFuT-63" target="eTuDxrzCidafxKBiJFuT-68">
          <mxGeometry relative="1" as="geometry" />
        </mxCell>
        <mxCell id="eTuDxrzCidafxKBiJFuT-63" value="选择对齐方式" style="rounded=1;whiteSpace=wrap;html=1;fontSize=12;glass=0;strokeWidth=1;shadow=0;" vertex="1" parent="1">
          <mxGeometry x="1687" y="293" width="159" height="40" as="geometry" />
        </mxCell>
        <mxCell id="eTuDxrzCidafxKBiJFuT-70" style="edgeStyle=orthogonalEdgeStyle;rounded=0;orthogonalLoop=1;jettySize=auto;html=1;exitX=0.5;exitY=1;exitDx=0;exitDy=0;entryX=0.5;entryY=0;entryDx=0;entryDy=0;" edge="1" parent="1" source="eTuDxrzCidafxKBiJFuT-64" target="eTuDxrzCidafxKBiJFuT-69">
          <mxGeometry relative="1" as="geometry" />
        </mxCell>
        <mxCell id="eTuDxrzCidafxKBiJFuT-64" value="选择排期维度" style="rounded=1;whiteSpace=wrap;html=1;fontSize=12;glass=0;strokeWidth=1;shadow=0;" vertex="1" parent="1">
          <mxGeometry x="2130" y="293" width="159" height="40" as="geometry" />
        </mxCell>
        <mxCell id="eTuDxrzCidafxKBiJFuT-67" style="edgeStyle=orthogonalEdgeStyle;rounded=0;orthogonalLoop=1;jettySize=auto;html=1;exitX=0.5;exitY=1;exitDx=0;exitDy=0;entryX=0.5;entryY=0;entryDx=0;entryDy=0;" edge="1" parent="1" source="eTuDxrzCidafxKBiJFuT-61" target="eTuDxrzCidafxKBiJFuT-64">
          <mxGeometry relative="1" as="geometry">
            <mxPoint x="1862" y="303" as="targetPoint" />
            <mxPoint x="2007" y="245" as="sourcePoint" />
          </mxGeometry>
        </mxCell>
        <mxCell id="eTuDxrzCidafxKBiJFuT-73" style="edgeStyle=orthogonalEdgeStyle;rounded=0;orthogonalLoop=1;jettySize=auto;html=1;exitX=0.5;exitY=1;exitDx=0;exitDy=0;" edge="1" parent="1" source="eTuDxrzCidafxKBiJFuT-68" target="eTuDxrzCidafxKBiJFuT-72">
          <mxGeometry relative="1" as="geometry" />
        </mxCell>
        <mxCell id="eTuDxrzCidafxKBiJFuT-68" value="可选择时间周期、迭代" style="rounded=1;whiteSpace=wrap;html=1;fontSize=12;glass=0;strokeWidth=1;shadow=0;" vertex="1" parent="1">
          <mxGeometry x="1687" y="371" width="159" height="40" as="geometry" />
        </mxCell>
        <mxCell id="eTuDxrzCidafxKBiJFuT-85" style="edgeStyle=orthogonalEdgeStyle;rounded=0;orthogonalLoop=1;jettySize=auto;html=1;exitX=0.5;exitY=1;exitDx=0;exitDy=0;entryX=0.5;entryY=0;entryDx=0;entryDy=0;" edge="1" parent="1" source="eTuDxrzCidafxKBiJFuT-69" target="eTuDxrzCidafxKBiJFuT-72">
          <mxGeometry relative="1" as="geometry">
            <Array as="points">
              <mxPoint x="2210" y="449" />
              <mxPoint x="1997" y="449" />
            </Array>
          </mxGeometry>
        </mxCell>
        <mxCell id="eTuDxrzCidafxKBiJFuT-69" value="可选择工作项类型、处理人等" style="rounded=1;whiteSpace=wrap;html=1;fontSize=12;glass=0;strokeWidth=1;shadow=0;" vertex="1" parent="1">
          <mxGeometry x="2130" y="377" width="159" height="40" as="geometry" />
        </mxCell>
        <mxCell id="eTuDxrzCidafxKBiJFuT-80" style="edgeStyle=orthogonalEdgeStyle;rounded=0;orthogonalLoop=1;jettySize=auto;html=1;exitX=1;exitY=0.5;exitDx=0;exitDy=0;entryX=0;entryY=0.5;entryDx=0;entryDy=0;" edge="1" parent="1" source="eTuDxrzCidafxKBiJFuT-72" target="eTuDxrzCidafxKBiJFuT-75">
          <mxGeometry relative="1" as="geometry" />
        </mxCell>
        <mxCell id="eTuDxrzCidafxKBiJFuT-72" value="生成路线图" style="rounded=1;whiteSpace=wrap;html=1;fontSize=12;glass=0;strokeWidth=1;shadow=0;" vertex="1" parent="1">
          <mxGeometry x="1937" y="487" width="120" height="40" as="geometry" />
        </mxCell>
        <mxCell id="eTuDxrzCidafxKBiJFuT-79" value="" style="edgeStyle=orthogonalEdgeStyle;rounded=0;orthogonalLoop=1;jettySize=auto;html=1;" edge="1" parent="1" source="eTuDxrzCidafxKBiJFuT-75" target="eTuDxrzCidafxKBiJFuT-76">
          <mxGeometry relative="1" as="geometry" />
        </mxCell>
        <mxCell id="eTuDxrzCidafxKBiJFuT-75" value="渲染路线图卡片" style="rounded=1;whiteSpace=wrap;html=1;fontSize=12;glass=0;strokeWidth=1;shadow=0;" vertex="1" parent="1">
          <mxGeometry x="2336" y="487" width="120" height="40" as="geometry" />
        </mxCell>
        <mxCell id="eTuDxrzCidafxKBiJFuT-78" style="edgeStyle=orthogonalEdgeStyle;rounded=0;orthogonalLoop=1;jettySize=auto;html=1;exitX=0.5;exitY=0;exitDx=0;exitDy=0;entryX=0.5;entryY=1;entryDx=0;entryDy=0;" edge="1" parent="1" source="eTuDxrzCidafxKBiJFuT-76" target="eTuDxrzCidafxKBiJFuT-77">
          <mxGeometry relative="1" as="geometry" />
        </mxCell>
        <mxCell id="eTuDxrzCidafxKBiJFuT-76" value="展示工作项信息（进度、状态、子工作项数）" style="rounded=1;whiteSpace=wrap;html=1;fontSize=12;glass=0;strokeWidth=1;shadow=0;" vertex="1" parent="1">
          <mxGeometry x="2336" y="371" width="120" height="40" as="geometry" />
        </mxCell>
        <mxCell id="eTuDxrzCidafxKBiJFuT-87" style="edgeStyle=orthogonalEdgeStyle;rounded=0;orthogonalLoop=1;jettySize=auto;html=1;exitX=0.5;exitY=0;exitDx=0;exitDy=0;entryX=0.5;entryY=1;entryDx=0;entryDy=0;" edge="1" parent="1" source="eTuDxrzCidafxKBiJFuT-77" target="eTuDxrzCidafxKBiJFuT-86">
          <mxGeometry relative="1" as="geometry" />
        </mxCell>
        <mxCell id="eTuDxrzCidafxKBiJFuT-77" value="点击工作项" style="rounded=1;whiteSpace=wrap;html=1;fontSize=12;glass=0;strokeWidth=1;shadow=0;" vertex="1" parent="1">
          <mxGeometry x="2336" y="267" width="120" height="40" as="geometry" />
        </mxCell>
        <mxCell id="eTuDxrzCidafxKBiJFuT-84" style="edgeStyle=orthogonalEdgeStyle;rounded=0;orthogonalLoop=1;jettySize=auto;html=1;exitX=0.5;exitY=1;exitDx=0;exitDy=0;entryX=0.5;entryY=0;entryDx=0;entryDy=0;" edge="1" parent="1" source="eTuDxrzCidafxKBiJFuT-81" target="eTuDxrzCidafxKBiJFuT-72">
          <mxGeometry relative="1" as="geometry" />
        </mxCell>
        <mxCell id="eTuDxrzCidafxKBiJFuT-81" value="配置层级" style="rounded=1;whiteSpace=wrap;html=1;fontSize=12;glass=0;strokeWidth=1;shadow=0;" vertex="1" parent="1">
          <mxGeometry x="1917.5" y="321" width="159" height="40" as="geometry" />
        </mxCell>
        <mxCell id="eTuDxrzCidafxKBiJFuT-86" value="跳转至下一层级路线图" style="rounded=1;whiteSpace=wrap;html=1;fontSize=12;glass=0;strokeWidth=1;shadow=0;" vertex="1" parent="1">
          <mxGeometry x="2336" y="184" width="120" height="40" as="geometry" />
        </mxCell>
        <mxCell id="eTuDxrzCidafxKBiJFuT-88" value="" style="strokeWidth=2;html=1;shape=mxgraph.flowchart.start_2;whiteSpace=wrap;aspect=fixed;" vertex="1" parent="1">
          <mxGeometry x="2371" y="62" width="50" height="50" as="geometry" />
        </mxCell>
        <mxCell id="eTuDxrzCidafxKBiJFuT-89" value="" style="strokeWidth=2;html=1;shape=mxgraph.flowchart.start_2;whiteSpace=wrap;aspect=fixed;fillColor=#000000;" vertex="1" parent="1">
          <mxGeometry x="2380.5" y="71.5" width="31" height="31" as="geometry" />
        </mxCell>
        <mxCell id="eTuDxrzCidafxKBiJFuT-90" style="edgeStyle=orthogonalEdgeStyle;rounded=0;orthogonalLoop=1;jettySize=auto;html=1;exitX=0.5;exitY=0;exitDx=0;exitDy=0;entryX=0.5;entryY=1;entryDx=0;entryDy=0;entryPerimeter=0;" edge="1" parent="1" source="eTuDxrzCidafxKBiJFuT-86" target="eTuDxrzCidafxKBiJFuT-88">
          <mxGeometry relative="1" as="geometry" />
        </mxCell>
      </root>
    </mxGraphModel>
  </diagram>
</mxfile>
